<?xml version="1.0" encoding="UTF-8"?>
<!-- Created with EazyDraw for Mac ( http://www.eazydraw.com/ ) -->

<svg
    version="1.1"
    xmlns:dc="http://purl.org/dc/elements/1.1/"
    xmlns:cc="http://creativecommons.org/ns#"
    xmlns:rdf="http://www.w3.org/1999/02/22-rdf-syntax-ns#"
    xmlns:svg="http://www.w3.org/2000/svg"
    xmlns:xlink="http://www.w3.org/1999/xlink"
    xmlns="http://www.w3.org/2000/svg"
    width="576"
    height="576"
    viewBox="0, 0, 576, 576"
    preserveAspectRatio="none"
    id="svg2">
   <defs
       id="defs_AA6E0F96"/>
   <metadata
       id="metadata7">
      <rdf:RDF>
         <cc:Work
             rdf:about="">
            <dc:format>image/svg+xml</dc:format>
            <dc:type rdf:resource="http://purl.org/dc/dcmitype/StillImage"/>
            <dc:title></dc:title>
         </cc:Work>
      </rdf:RDF>
   </metadata>
   <g
       id="layer_Paper"
       style="fill:#000000;fill-opacity:1;stroke:#000000;stroke-opacity:1;fill-rule:nonzero;stroke-linecap:square;stroke-linejoin:miter;stroke-width:1;stroke-miterlimit:10">
      <g
          id="E082BC76"
          transform="matrix(1.707152539129,0.405489260338,-0.409305626407,1.69123504715,-57.4604014796,-297.470848659)">
         <ellipse
             style="fill:#00D5BF;stroke-width:4"
             id="7A62BC76"
             cx="268.16796815"
             cy="281.378905481"
             rx="110.363280573"
             ry="143.136721176"
             transform="matrix(1,0,0,1,0,0)"/>
         <polygon
             style="fill:#E44B25;stroke:#202020"
             id="2D62BC76"
             points="214.578125057,154.457031343 192.757812564,176.113281336 203.238281311,204.808593826 180.933593818,246.789062561 193.488281314,264.996093805 192.332031314,286.039062548 223.492187554,253.757812559 209.085937559,221.29296882 232.6210938,193.11328133 211.144531308,171.957031337"/>
         <polygon
             style="fill:#E44B25"
             id="9F62BC76"
             points="267.390625038,184.941406333 247.476562545,221.75781257 267.398437538,244.566406312 243.406250047,272.039062553 273.218750036,314.769531288 253.191406293,331.695312532 280.777343784,397.589843759 295.808593779,332.324218782 325.347656268,289.894531297 285.949218782,258.941406307 297.300781278,232.062500066 271.425781287,213.835937573"/>
         <polygon
             style="fill:#E44B25"
             id="E172BC76"
             points="287.285156282,140.214843848 302.906250026,153.519531344 305.039062525,172.972656337 317.675781271,152.707031344"/>
         <polygon
             style="fill:#E44B25"
             id="3472BC76"
             points="343.660156262,179.921875084 336.265625015,183.843750083 346.179687511,214.515625073 331.812500016,232.875000066 345.789062511,262.539062556 342.730468762,312.273437539 361.507812506,265.953125055 349.86718751,238.968750064 356.250000008,214.113281323 350.73437501,182.917968833"/>
         <polygon
             style="fill:#E44B25"
             id="8672BC76"
             points="374.968750001,308.98437504 357.664062507,334.859375031 363.707031255,339.480468779 350.33203126,354.449218774 349.24609376,369.734375019 357.910156257,352.386718775 365.726562504,343.683593778 366.082031254,331.117187532 371.414062502,323.132812535 375.679687501,315.507812538"/>
         <polygon
             style="fill:#E44B25"
             id="A872BC76"
             points="325.574218768,358.636718773 301.609375027,376.699218767 310.417968774,391.410156261 293.789062529,404.335937507 294.605468779,419.074218752 308.003906274,400.949218758 329.730468767,390.828125012 318.761718771,374.464843767"/>
         <polygon
             style="fill:#E44B25"
             id="DA72BC76"
             points="209.007812559,294.085937545 224.699218803,318.207031287 216.347656306,345.078125027 230.648437551,381.914062515 221.273437554,393.761718761 218.261718805,401.664062508 210.023437558,385.007812514 214.367187557,374.835937517 194.171875064,341.554687529 206.968750059,328.324218783"/>
         <polygon
             style="fill:#E44B25"
             id="4D72BC76"
             points="174.48828132,361.859375022 168.667968822,344.792968778 169.734375072,325.996093784 166.101562573,307.80859379 175.69140632,302.332031292 178.503906319,332.285156282 174.199218821,342.640625028"/>
         <ellipse
             style="fill:none;stroke-width:4"
             id="B082BC76"
             cx="267.28015565"
             cy="281.320624231"
             rx="110.363280573"
             ry="143.13672448"
             transform="matrix(1,0,0,1,0,0)"/>
      </g>
   </g>
</svg>
