<?xml version="1.0" standalone="no"?>
<!DOCTYPE svg PUBLIC "-//W3C//DTD SVG 20010904//EN"
 "http://www.w3.org/TR/2001/REC-SVG-20010904/DTD/svg10.dtd">
<svg version="1.0" xmlns="http://www.w3.org/2000/svg"
 width="700.000000pt" height="700.000000pt" viewBox="0 0 700.000000 700.000000"
 preserveAspectRatio="xMidYMid meet">
<metadata>
Created by potrace 1.11, written by Peter Selinger 2001-2013
</metadata>
<g transform="translate(0.000000,700.000000) scale(0.100000,-0.100000)"
fill="#000000" stroke="none">
<path d="M3568 6545 c-1 -1 -32 -6 -68 -9 -369 -38 -768 -205 -1125 -471 -202
-151 -449 -393 -568 -556 -17 -24 -40 -53 -50 -64 -31 -34 -182 -266 -246
-378 -56 -96 -110 -205 -184 -367 -118 -260 -242 -700 -282 -1005 -2 -22 -7
-53 -9 -70 -4 -34 -15 -142 -21 -225 -11 -126 -5 -475 9 -585 3 -27 8 -68 10
-90 7 -62 26 -187 30 -194 2 -3 7 -26 10 -51 4 -25 15 -82 25 -127 10 -45 16
-85 13 -88 -3 -3 0 -5 6 -5 7 0 12 -7 12 -15 0 -20 83 -268 116 -349 99 -237
239 -476 388 -661 69 -85 277 -288 361 -351 356 -269 770 -410 1199 -407 86 1
211 9 256 18 8 2 35 6 60 10 25 3 74 13 110 21 36 9 72 17 81 19 107 23 335
112 477 186 535 283 990 763 1301 1372 87 171 113 230 170 379 86 229 162 504
196 713 3 17 10 53 15 80 5 28 12 75 15 106 3 31 7 65 9 75 9 49 19 245 20
393 1 153 -4 257 -19 406 -10 104 -36 259 -59 359 -9 35 -17 75 -20 87 -34
160 -122 402 -217 594 -136 276 -272 470 -468 666 -212 210 -418 347 -682 452
-155 62 -267 91 -485 126 -48 7 -378 13 -386 6z"/>
</g>
</svg>
